<svg xmlns="http://www.w3.org/2000/svg" viewBox="0 0 500 500"><g id="freepik--Floor--inject-4"><path id="freepik--floor--inject-4" d="M77.66,248.88c-95.18,54.95-95.17,144,0,199s249.49,54.95,344.67,0,95.17-144,0-199S172.84,193.93,77.66,248.88Z" style="fill:#fafafa"></path></g><g id="freepik--Window--inject-4"><g id="freepik--window--inject-4"><g id="freepik--Frame--inject-4"><polygon points="350.98 31.81 348.16 33.38 348.16 138.8 350.98 137.23 350.98 31.81" style="fill:#fafafa"></polygon><polygon points="350.98 137.23 350.98 35.02 464.12 100.34 464.1 202.54 350.98 137.23" style="fill:#fff"></polygon><path d="M469.35,214.81V97.32l-126.42-73v117.5Zm-121.19-76V33.39l116,67V205.75Z" style="fill:#f0f0f0"></path><polygon points="348.16 138.8 350.98 137.23 464.1 202.54 464.12 205.75 348.16 138.8" style="fill:#e0e0e0"></polygon><polygon points="379.74 51.62 376.92 49.99 376.92 155.41 379.74 153.84 379.74 51.62" style="fill:#fafafa"></polygon><polygon points="443.29 88.31 440.48 86.69 440.48 192.1 443.29 190.53 443.29 88.31" style="fill:#fafafa"></polygon><polygon points="469.35 214.81 472.15 213.18 472.15 95.68 469.35 97.31 469.35 214.81" style="fill:#e0e0e0"></polygon><polygon points="472.15 95.68 469.35 97.31 342.93 24.33 345.73 22.69 472.15 95.68" style="fill:#fafafa"></polygon><polygon points="464.12 147.58 464.12 150.83 348.15 83.88 350.95 82.25 464.12 147.58" style="fill:#e0e0e0"></polygon></g><polygon points="464.11 156.87 464.12 150.83 348.15 83.88 348.16 89.92 464.11 156.87" style="fill:#f0f0f0"></polygon><polygon points="440.48 198.15 435.25 195.13 435.25 77.63 440.48 80.65 440.48 198.15" style="fill:#f0f0f0"></polygon><polygon points="376.93 161.46 371.71 158.44 371.71 40.94 376.93 43.96 376.93 161.46" style="fill:#f0f0f0"></polygon><polygon points="440.48 137.19 443.29 135.56 443.29 88.31 440.48 86.69 440.48 137.19" style="fill:#fafafa"></polygon><polygon points="376.95 100.51 379.77 98.88 379.77 51.63 376.95 50.01 376.95 100.51" style="fill:#fafafa"></polygon></g></g><g id="freepik--Pictures--inject-4"><g id="freepik--pictures--inject-4"><g id="freepik--Picture--inject-4"><g id="freepik--frame--inject-4"><polygon points="44.78 189.94 46.38 190.89 79.23 171.93 77.63 170.97 44.78 189.94" style="fill:#fafafa"></polygon><polygon points="77.63 170.97 46.38 189.01 46.38 109.45 77.63 91.42 77.63 170.97" style="fill:#fff"></polygon><path d="M82.25,85.25,43.36,107.71v88.41l38.89-22.45Zm-3,86.68-32.85,19V109.45l32.85-19Z" style="fill:#f0f0f0"></path><polygon points="79.23 171.93 77.63 170.97 77.63 91.42 79.23 90.48 79.23 171.93" style="fill:#e0e0e0"></polygon><polygon points="82.25 85.25 80.63 84.32 41.74 106.78 43.36 107.71 82.25 85.25" style="fill:#fafafa"></polygon><polygon points="41.74 106.78 43.36 107.71 43.36 196.12 41.74 195.19 41.74 106.78" style="fill:#e0e0e0"></polygon></g><g id="freepik--Land--inject-4"><polygon points="75.29 169.1 48.73 184.44 48.73 112.28 75.29 96.94 75.29 169.1" style="fill:#f0f0f0"></polygon></g><g id="freepik--land--inject-4"><polygon points="75.29 169.1 48.73 184.44 48.73 112.28 75.29 96.94 75.29 169.1" style="fill:#f0f0f0"></polygon></g><path d="M48.73,158.68a25.24,25.24,0,0,0,3.79,0,48.14,48.14,0,0,0,12.94-2.82c3.21-1.18,6.43-2.72,9.83-2.82V169.1l-3.6,2.08a12.14,12.14,0,0,0-4.93-2.74c-5.12-1.35-10.37,1.23-15.63,1.83a21.31,21.31,0,0,1-2.4.12Z" style="fill:#fafafa"></path><path d="M48.73,144.53c5.94-1.76,12-3.23,16.28-7.58,3.41-3.52,5-8.39,6.15-13.16s1.9-9.7,4.06-14.1l.07-.13V140c-.34.5-.67,1-1,1.48-3.91,5.29-9.66,9.7-16.22,10-3.08.16-6.27-.56-9.32-.55Z" style="fill:#fafafa"></path><path d="M48.73,126.85a18.13,18.13,0,0,0,5.88-16.47c-.08-.45-.19-.89-.3-1.33l10.22-5.9c0,.67-.07,1.35-.09,2-.11,3.9,0,7.85-.84,11.65A22.91,22.91,0,0,1,52,131.87a22.25,22.25,0,0,1-3.23,1.35Z" style="fill:#fafafa"></path></g><g id="freepik--picture--inject-4"><g id="freepik--frame--inject-4"><polygon points="44.75 88.87 46.34 89.81 78.87 71.03 77.28 70.09 44.75 88.87" style="fill:#fafafa"></polygon><polygon points="77.28 70.09 46.34 87.95 46.34 55.54 77.28 37.69 77.28 70.09" style="fill:#fff"></polygon><path d="M81.86,31.58,43.35,53.82V95L81.86,72.76ZM78.87,71,46.34,89.81V55.54L78.87,36.76Z" style="fill:#f0f0f0"></path><polygon points="78.87 71.03 77.28 70.09 77.28 37.69 78.87 36.76 78.87 71.03" style="fill:#e0e0e0"></polygon><polygon points="81.86 31.58 80.25 30.66 41.74 52.9 43.35 53.82 81.86 31.58" style="fill:#fafafa"></polygon><polygon points="41.74 52.9 43.35 53.82 43.35 94.99 41.74 94.07 41.74 52.9" style="fill:#e0e0e0"></polygon></g><g id="freepik--land--inject-4"><polygon points="76.08 69.12 47.55 85.59 47.55 77.35 54.68 60.88 59.12 65 57.52 71.9 67.38 50.84 76.08 60.88 76.08 69.12" style="fill:#f0f0f0"></polygon><path d="M58.85,52.93a4.67,4.67,0,0,0-2.11,3.65c0,1.35.95,1.89,2.11,1.22A4.65,4.65,0,0,0,61,54.15C61,52.8,60,52.26,58.85,52.93Z" style="fill:#f0f0f0"></path></g></g></g></g><g id="freepik--Clock--inject-4"><g id="freepik--clock--inject-4"><path d="M288.48,36.66h0l0,0h0l5.39-3.12h0l0,0h0c3.39-1.73,7.93-1.22,12.81,1.92,9.81,6.32,17.31,20.89,16.74,32.54-.28,5.81-2.51,9.8-5.9,11.56h0l-5.39,3.12h0l0,0h0c-3.4,1.72-7.93,1.22-12.82-1.93-9.81-6.31-17.3-20.88-16.74-32.54C282.86,42.41,285.1,38.42,288.48,36.66Z" style="fill:#ebebeb"></path><path d="M312.43,82.53l5.14-3h0l0,0c3.38-1.77,5.61-5.75,5.89-11.55A36.35,36.35,0,0,0,320,51.63l-5.39,3.13a36.31,36.31,0,0,1,3.54,16.33C317.83,76.77,315.69,80.71,312.43,82.53Z" style="fill:#e0e0e0"></path><path d="M299.32,80.75c-9.81-6.31-17.3-20.88-16.74-32.54s9-16,18.79-9.66,17.3,20.89,16.74,32.54S309.13,87.07,299.32,80.75Z" style="fill:#f0f0f0"></path><path d="M307.54,79.94c5.78.28,6.72-6.22,6.86-9,.5-10.28-6.39-23.67-15-29.24a13.09,13.09,0,0,0-6.21-2.31c-5.78-.28-6.73,6.23-6.86,9-.5,10.28,6.39,23.67,15,29.25a13.17,13.17,0,0,0,6.21,2.3Z" style="fill:#fff"></path><path d="M299.21,61.58a.64.64,0,0,0,.2,0,.63.63,0,0,0,.43-.6V46.08a.63.63,0,1,0-1.26,0v13l-6.94-8.91a.62.62,0,0,0-.88-.11.63.63,0,0,0-.11.88l8.06,10.36A.65.65,0,0,0,299.21,61.58Z" style="fill:#e0e0e0"></path><path d="M302.76,72.56h.09a.27.27,0,0,0,.18-.33l-3.49-11.76a.27.27,0,1,0-.51.15l3.49,11.76A.26.26,0,0,0,302.76,72.56Z" style="fill:#ebebeb"></path><path d="M299.41,58c-1.16-.75-2.15-.24-2.21,1.13a4.73,4.73,0,0,0,2,3.83c1.15.74,2.14.24,2.21-1.14A4.77,4.77,0,0,0,299.41,58Z" style="fill:#ebebeb"></path></g></g><g id="freepik--Shadows--inject-4"><path id="freepik--Shadow--inject-4" d="M95.68,344.51c12.76,7.45,12.76,19.53,0,27s-33.44,7.45-46.2,0-12.76-19.52,0-27S82.92,337.07,95.68,344.51Z" style="fill:#e0e0e0"></path><path id="freepik--shadow--inject-4" d="M325.2,252.06l149.69,86.5a1.17,1.17,0,0,1,0,2.22l-42.83,24.71a4.26,4.26,0,0,1-3.84,0L278.53,279a1.17,1.17,0,0,1,0-2.22l42.82-24.7A4.22,4.22,0,0,1,325.2,252.06Z" style="fill:#e0e0e0"></path><path id="freepik--shadow--inject-4" d="M274.07,436.94l107.19-61.75c1.47-.85,1.47-2.22,0-3.07L269.07,307.25a5.91,5.91,0,0,0-5.31,0L156.57,369c-1.47.85-1.47,2.22,0,3.07l112.19,64.87A5.91,5.91,0,0,0,274.07,436.94Z" style="fill:#e0e0e0"></path><ellipse id="freepik--shadow--inject-4" cx="122.77" cy="414.67" rx="47.42" ry="27.38" style="fill:#e0e0e0"></ellipse><ellipse id="freepik--shadow--inject-4" cx="339.83" cy="414.14" rx="66.18" ry="38.21" style="fill:#e0e0e0"></ellipse></g><g id="freepik--Plant--inject-4"><g id="freepik--plant--inject-4"><g id="freepik--Pot--inject-4"><path d="M53.67,358.31c-10.12-10.44-16.07-36.69-6.2-45H97.68c9.87,8.28,3.93,34.51-6.18,45-.08.1-.18.19-.27.29l-.35.34c-.29.28-.59.55-.92.82l-.24.19c-.25.2-.49.4-.76.59a12.56,12.56,0,0,1-1.31.84c-8.32,4.86-21.82,4.86-30.14,0h0a14.72,14.72,0,0,1-1.32-.85c-.25-.18-.48-.36-.71-.54l-.3-.24c-.31-.26-.6-.52-.88-.79l-.4-.4Z" style="fill:#37474f"></path><path d="M93.32,310c11.46,6.69,11.46,17.53,0,24.22s-30,6.69-41.48,0-11.46-17.53,0-24.22S81.87,303.32,93.32,310Z" style="fill:#455a64"></path><path d="M87.81,313.23c8.42,4.91,8.42,12.87,0,17.78s-22,4.92-30.46,0-8.42-12.87,0-17.78S79.4,308.31,87.81,313.23Z" style="fill:#263238"></path><path d="M57.35,321.67c8.41-4.91,22.05-4.91,30.46,0a14,14,0,0,1,5,4.67,13.93,13.93,0,0,1-5,4.67c-8.41,4.92-22,4.92-30.46,0a13.93,13.93,0,0,1-5-4.67A14,14,0,0,1,57.35,321.67Z" style="fill:#fafafa"></path></g><path d="M69.2,254.71c-3.85,4.17-14.54,5.31-19-6-4.15-10.57-8.63-20.58-9.91-24.46s2.55-5.16,2.55-5.16.31-5.8,10.15-1.87,16.78,9.9,21.07,19.56S75.79,253.41,69.2,254.71Z" style="fill:#049DD9"></path><path d="M69.2,254.71c-3.85,4.17-14.54,5.31-19-6-4.15-10.57-8.63-20.58-9.91-24.46s2.55-5.16,2.55-5.16.31-5.8,10.15-1.87,16.78,9.9,21.07,19.56S75.79,253.41,69.2,254.71Z" style="fill:#fff;opacity:0.45"></path><path d="M73.46,269.6a52.52,52.52,0,0,0-.85-5.87,82.51,82.51,0,0,0-3.26-11.34,83.62,83.62,0,0,0-11.41-21,72.17,72.17,0,0,0-9-10.17c-.1-.09-.17.14-.11.21a89.51,89.51,0,0,1,14,19.38,90.4,90.4,0,0,1,8.11,22c.49,2.14,1,4.29,1.34,6.45s.63,4.41,1,6.61c0,.22.38.35.39.05A41.08,41.08,0,0,0,73.46,269.6Z" style="fill:#049DD9"></path><path d="M73.46,269.6a52.52,52.52,0,0,0-.85-5.87,82.51,82.51,0,0,0-3.26-11.34,83.62,83.62,0,0,0-11.41-21,72.17,72.17,0,0,0-9-10.17c-.1-.09-.17.14-.11.21a89.51,89.51,0,0,1,14,19.38,90.4,90.4,0,0,1,8.11,22c.49,2.14,1,4.29,1.34,6.45s.63,4.41,1,6.61c0,.22.38.35.39.05A41.08,41.08,0,0,0,73.46,269.6Z" style="opacity:0.30000000000000004"></path><path d="M76.75,251.79c-8.84,2.73-15.4-4.17-13.13-15S77.25,214,81.54,217.21c2.68-2.68,8.59-1.72,11.37,7.07S93.16,255.62,76.75,251.79Z" style="fill:#049DD9"></path><path d="M76.75,251.79c-8.84,2.73-15.4-4.17-13.13-15S77.25,214,81.54,217.21c2.68-2.68,8.59-1.72,11.37,7.07S93.16,255.62,76.75,251.79Z" style="fill:#fff;opacity:0.25"></path><path d="M81.93,223.79a118.22,118.22,0,0,0-5.87,19.43,189.45,189.45,0,0,0-3.41,20.35,317.87,317.87,0,0,0-1.78,39.87q0,5.52.15,11c.07,3.79,0,7.62.34,11.39.12,1.44,2.18,1.06,2.2-.26.13-6.63-.23-13.28-.3-19.91s0-13.1.13-19.65A276.65,276.65,0,0,1,77,246.23c.63-3.67,1.33-7.33,2.19-10.95.9-3.81,2-7.56,3-11.35C82.19,223.78,82,223.59,81.93,223.79Z" style="fill:#049DD9"></path><path d="M81.93,223.79a118.22,118.22,0,0,0-5.87,19.43,189.45,189.45,0,0,0-3.41,20.35,317.87,317.87,0,0,0-1.78,39.87q0,5.52.15,11c.07,3.79,0,7.62.34,11.39.12,1.44,2.18,1.06,2.2-.26.13-6.63-.23-13.28-.3-19.91s0-13.1.13-19.65A276.65,276.65,0,0,1,77,246.23c.63-3.67,1.33-7.33,2.19-10.95.9-3.81,2-7.56,3-11.35C82.19,223.78,82,223.59,81.93,223.79Z" style="opacity:0.30000000000000004"></path><path d="M62.37,283.5c-3.86,4.37-12.71,4-18.64-3.81s-9.5-37.12-1.15-35.25c1.77-3.92,24.84,5.48,27.8,24.61C72.53,283,62.37,283.5,62.37,283.5Z" style="fill:#049DD9"></path><path d="M62.37,283.5c-3.86,4.37-12.71,4-18.64-3.81s-9.5-37.12-1.15-35.25c1.77-3.92,24.84,5.48,27.8,24.61C72.53,283,62.37,283.5,62.37,283.5Z" style="fill:#fff;opacity:0.25"></path><path d="M69.27,297.36A40.73,40.73,0,0,0,68.13,292,110.19,110.19,0,0,0,64.7,281.4a112.32,112.32,0,0,0-10.31-20.23,99.5,99.5,0,0,0-7.32-10.34c-.07-.09-.14.12-.1.18,2.06,3,4.15,6,6,9.11s3.64,6.63,5.23,10.06a140.24,140.24,0,0,1,7.61,20.41c.56,2,1,4,1.61,6s1.38,4.07,1.9,6.15c.07.31.46.42.42,0C69.57,301,69.51,299.15,69.27,297.36Z" style="fill:#049DD9"></path><path d="M69.27,297.36A40.73,40.73,0,0,0,68.13,292,110.19,110.19,0,0,0,64.7,281.4a112.32,112.32,0,0,0-10.31-20.23,99.5,99.5,0,0,0-7.32-10.34c-.07-.09-.14.12-.1.18,2.06,3,4.15,6,6,9.11s3.64,6.63,5.23,10.06a140.24,140.24,0,0,1,7.61,20.41c.56,2,1,4,1.61,6s1.38,4.07,1.9,6.15c.07.31.46.42.42,0C69.57,301,69.51,299.15,69.27,297.36Z" style="opacity:0.30000000000000004"></path><path d="M76.5,279.17c-5-1.15-5.31-7.22,1-14.66s22.21-10.69,23-7.55C104,257,104,268,96.19,278.2S77,286,76.5,279.17Z" style="fill:#049DD9"></path><path d="M76.5,279.17c-5-1.15-5.31-7.22,1-14.66s22.21-10.69,23-7.55C104,257,104,268,96.19,278.2S77,286,76.5,279.17Z" style="fill:#fff;opacity:0.25"></path><path d="M86.39,268.34a39.93,39.93,0,0,0-14.62,18.87c-.16.43.58,1.07.76.6a46.48,46.48,0,0,1,13.89-19.36S86.45,268.3,86.39,268.34Z" style="fill:#049DD9"></path><path d="M86.39,268.34a39.93,39.93,0,0,0-14.62,18.87c-.16.43.58,1.07.76.6a46.48,46.48,0,0,1,13.89-19.36S86.45,268.3,86.39,268.34Z" style="opacity:0.30000000000000004"></path><path d="M82.26,316.12c-7,2.83-4,11.15,2.84,17.48s16.59,8,21.28,7.67,5.9-1,5.9-1,.75-7.2,0-11.58A22.41,22.41,0,0,0,95.76,311C84.88,308,82.26,312,82.26,316.12Z" style="fill:#049DD9"></path><path d="M82.26,316.12c-7,2.83-4,11.15,2.84,17.48s16.59,8,21.28,7.67,5.9-1,5.9-1,.75-7.2,0-11.58A22.41,22.41,0,0,0,95.76,311C84.88,308,82.26,312,82.26,316.12Z" style="fill:#fff;opacity:0.45"></path><path d="M101.63,328.41a56.49,56.49,0,0,0-10.71-9.9c-4-2.63-9.29-4.86-14.07-3.23-1.85.63-4.73,2.48-4.38,4.77,0,.23.44.79.71.48a19.17,19.17,0,0,1,2.52-2.94,7.41,7.41,0,0,1,3.75-1.42,17.31,17.31,0,0,1,9.81,2.23c4.73,2.51,8.55,6.4,12.32,10.13C101.62,328.57,101.66,328.45,101.63,328.41Z" style="fill:#049DD9"></path><path d="M101.63,328.41a56.49,56.49,0,0,0-10.71-9.9c-4-2.63-9.29-4.86-14.07-3.23-1.85.63-4.73,2.48-4.38,4.77,0,.23.44.79.71.48a19.17,19.17,0,0,1,2.52-2.94,7.41,7.41,0,0,1,3.75-1.42,17.31,17.31,0,0,1,9.81,2.23c4.73,2.51,8.55,6.4,12.32,10.13C101.62,328.57,101.66,328.45,101.63,328.41Z" style="opacity:0.30000000000000004"></path><path d="M55.63,280.3c.66-3.19-3.93-10.82-18.27-12.28s-25.09,4.62-27.26,7.4-3.25,5.71-.65,6.43,11.56,1.61,17.44,4.31,17.84,10.71,26,8.33S59.69,283.46,55.63,280.3Z" style="fill:#049DD9"></path><path d="M55.63,280.3c.66-3.19-3.93-10.82-18.27-12.28s-25.09,4.62-27.26,7.4-3.25,5.71-.65,6.43,11.56,1.61,17.44,4.31,17.84,10.71,26,8.33S59.69,283.46,55.63,280.3Z" style="fill:#fff;opacity:0.45"></path><path d="M66.53,291.4c-6.05-12.49-21.63-16.31-34.38-16.24a50,50,0,0,0-12.42,1.62c-.06,0-.07.15,0,.14a66,66,0,0,1,20.76-.21c6.76,1.1,13.41,3.2,19,7.32a25.76,25.76,0,0,1,6.79,7.61C66.42,291.94,66.66,291.65,66.53,291.4Z" style="fill:#049DD9"></path><path d="M66.53,291.4c-6.05-12.49-21.63-16.31-34.38-16.24a50,50,0,0,0-12.42,1.62c-.06,0-.07.15,0,.14a66,66,0,0,1,20.76-.21c6.76,1.1,13.41,3.2,19,7.32a25.76,25.76,0,0,1,6.79,7.61C66.42,291.94,66.66,291.65,66.53,291.4Z" style="opacity:0.30000000000000004"></path><path d="M89,263.56c-.18,5,6.88,7.93,13.71,3.59s14-8.56,20.32-10.19,9.33-6.8,7.33-9.3-5.18-8.8-21.82-6.75S86,250.47,83.76,255.77,86.54,265,89,263.56Z" style="fill:#049DD9"></path><path d="M89,263.56c-.18,5,6.88,7.93,13.71,3.59s14-8.56,20.32-10.19,9.33-6.8,7.33-9.3-5.18-8.8-21.82-6.75S86,250.47,83.76,255.77,86.54,265,89,263.56Z" style="fill:#fff;opacity:0.45"></path><path d="M116.13,247.64a18,18,0,0,0-7.14.75,35.84,35.84,0,0,0-6.11,2.18,33.72,33.72,0,0,0-10.4,7.54,27.55,27.55,0,0,0-2.35,2.83,11.78,11.78,0,0,0-1.78,2.91c-.11.33.37.87.66.53.82-.95,1.44-2.11,2.22-3.11a33.94,33.94,0,0,1,2.67-3.07,34.37,34.37,0,0,1,6.41-5,39.93,39.93,0,0,1,7.11-3.46,42.79,42.79,0,0,1,4.14-1.24,14.47,14.47,0,0,1,4.53-.63C116.17,247.83,116.21,247.65,116.13,247.64Z" style="fill:#049DD9"></path><path d="M116.13,247.64a18,18,0,0,0-7.14.75,35.84,35.84,0,0,0-6.11,2.18,33.72,33.72,0,0,0-10.4,7.54,27.55,27.55,0,0,0-2.35,2.83,11.78,11.78,0,0,0-1.78,2.91c-.11.33.37.87.66.53.82-.95,1.44-2.11,2.22-3.11a33.94,33.94,0,0,1,2.67-3.07,34.37,34.37,0,0,1,6.41-5,39.93,39.93,0,0,1,7.11-3.46,42.79,42.79,0,0,1,4.14-1.24,14.47,14.47,0,0,1,4.53-.63C116.17,247.83,116.21,247.65,116.13,247.64Z" style="opacity:0.30000000000000004"></path><path d="M77.1,290.63c-2.33-2.33-8.66-1.79-11.66,5.1s3.3,14.43,4,16.55c2.89-1.67,5.14-.67,10.23-1.67a12.71,12.71,0,0,0,9.76-12.67C89.09,291.63,86.43,287.47,77.1,290.63Z" style="fill:#049DD9"></path><path d="M77.1,290.63c-2.33-2.33-8.66-1.79-11.66,5.1s3.3,14.43,4,16.55c2.89-1.67,5.14-.67,10.23-1.67a12.71,12.71,0,0,0,9.76-12.67C89.09,291.63,86.43,287.47,77.1,290.63Z" style="fill:#fff;opacity:0.45"></path><path d="M77,289.94a9.47,9.47,0,0,0-3.09,3.2,17.89,17.89,0,0,0-2,3.86,16.52,16.52,0,0,0-.88,8.77c0,.12.11,0,.11-.06A18.15,18.15,0,0,1,72.62,297a17.37,17.37,0,0,1,2.11-3.48,16.71,16.71,0,0,1,1.4-1.63,8.87,8.87,0,0,0,1.34-1.33C77.64,290.33,77.37,289.76,77,289.94Z" style="fill:#049DD9"></path><path d="M77,289.94a9.47,9.47,0,0,0-3.09,3.2,17.89,17.89,0,0,0-2,3.86,16.52,16.52,0,0,0-.88,8.77c0,.12.11,0,.11-.06A18.15,18.15,0,0,1,72.62,297a17.37,17.37,0,0,1,2.11-3.48,16.71,16.71,0,0,1,1.4-1.63,8.87,8.87,0,0,0,1.34-1.33C77.64,290.33,77.37,289.76,77,289.94Z" style="opacity:0.30000000000000004"></path><path d="M66.13,304.6c-.22-5.13-5.77-9.2-13.68-11.55A21.55,21.55,0,0,0,30.21,299c-5.77,6.28-8.76,11.62-6.41,13.12s12.83,5.34,19.67,7.48,15.82,2.78,22.66-1.28S72.54,307.16,66.13,304.6Z" style="fill:#049DD9"></path><path d="M66.13,304.6c-.22-5.13-5.77-9.2-13.68-11.55A21.55,21.55,0,0,0,30.21,299c-5.77,6.28-8.76,11.62-6.41,13.12s12.83,5.34,19.67,7.48,15.82,2.78,22.66-1.28S72.54,307.16,66.13,304.6Z" style="fill:#fff;opacity:0.25"></path><path d="M66.57,304a21.87,21.87,0,0,0-8.6-2.3,39.25,39.25,0,0,0-8.6.11,53.4,53.4,0,0,0-8.92,1.88q-2.28.68-4.52,1.5a30.5,30.5,0,0,0-4.14,1.7c-.05,0-.08.2,0,.18,1.45-.3,2.87-.87,4.28-1.3s3.06-.92,4.61-1.33a60.93,60.93,0,0,1,8.78-1.66,39.22,39.22,0,0,1,8.93,0,52.43,52.43,0,0,1,8.09,2C67,305,66.88,304.2,66.57,304Z" style="fill:#049DD9"></path><path d="M66.57,304a21.87,21.87,0,0,0-8.6-2.3,39.25,39.25,0,0,0-8.6.11,53.4,53.4,0,0,0-8.92,1.88q-2.28.68-4.52,1.5a30.5,30.5,0,0,0-4.14,1.7c-.05,0-.08.2,0,.18,1.45-.3,2.87-.87,4.28-1.3s3.06-.92,4.61-1.33a60.93,60.93,0,0,1,8.78-1.66,39.22,39.22,0,0,1,8.93,0,52.43,52.43,0,0,1,8.09,2C67,305,66.88,304.2,66.57,304Z" style="opacity:0.30000000000000004"></path><path d="M82.45,297c-5.66-4.49-3.77-15.27,16-15.85s33.92,4.59,33.29,11c3.19,3.18,1.57,12.1-14.44,14.89S78.36,308.36,82.45,297Z" style="fill:#049DD9"></path><path d="M82.45,297c-5.66-4.49-3.77-15.27,16-15.85s33.92,4.59,33.29,11c3.19,3.18,1.57,12.1-14.44,14.89S78.36,308.36,82.45,297Z" style="fill:#fff;opacity:0.25"></path><path d="M122.45,292.14a85.06,85.06,0,0,0-17.68-1c-5.43.16-11.06.42-16.32,1.88a24.73,24.73,0,0,0-4,1.48,19.19,19.19,0,0,0-1.73.93c-.45.27-.95.51-1.12,1a.55.55,0,0,0,.59.63,20.59,20.59,0,0,0,3.46-1.71,27.54,27.54,0,0,1,3.43-1.25A43.46,43.46,0,0,1,96,292.74a121.17,121.17,0,0,1,16.7-.92c3.26,0,6.5.29,9.74.54C122.51,292.37,122.55,292.15,122.45,292.14Z" style="fill:#049DD9"></path><path d="M122.45,292.14a85.06,85.06,0,0,0-17.68-1c-5.43.16-11.06.42-16.32,1.88a24.73,24.73,0,0,0-4,1.48,19.19,19.19,0,0,0-1.73.93c-.45.27-.95.51-1.12,1a.55.55,0,0,0,.59.63,20.59,20.59,0,0,0,3.46-1.71,27.54,27.54,0,0,1,3.43-1.25A43.46,43.46,0,0,1,96,292.74a121.17,121.17,0,0,1,16.7-.92c3.26,0,6.5.29,9.74.54C122.51,292.37,122.55,292.15,122.45,292.14Z" style="opacity:0.30000000000000004"></path></g></g><g id="freepik--Furniture--inject-4"><g id="freepik--Table--inject-4"><path d="M432.63,350.37h-9.1l1.45,8.88h0a1.67,1.67,0,0,0,.89,1.1,4.87,4.87,0,0,0,4.4,0,1.65,1.65,0,0,0,.88-1.1h0Z" style="fill:#e0e0e0"></path><path d="M432.63,350.37h-9.1l1.45,8.88h0a1.67,1.67,0,0,0,.89,1.1,4.87,4.87,0,0,0,4.4,0,1.65,1.65,0,0,0,.88-1.1h0Z" style="opacity:0.1"></path><path d="M302.73,275.42h-9.1l1.45,8.87h0a1.67,1.67,0,0,0,.89,1.1,4.87,4.87,0,0,0,4.4,0,1.65,1.65,0,0,0,.88-1.1h0Z" style="fill:#e0e0e0"></path><path d="M302.73,275.42h-9.1l1.45,8.87h0a1.67,1.67,0,0,0,.89,1.1,4.87,4.87,0,0,0,4.4,0,1.65,1.65,0,0,0,.88-1.1h0Z" style="opacity:0.1"></path><path d="M469.61,329h-9.1l1.45,8.88h0a1.62,1.62,0,0,0,.88,1.1,4.87,4.87,0,0,0,4.4,0,1.65,1.65,0,0,0,.88-1.1h0Z" style="fill:#e0e0e0"></path><path d="M469.61,329h-9.1l1.45,8.88h0a1.62,1.62,0,0,0,.88,1.1,4.87,4.87,0,0,0,4.4,0,1.65,1.65,0,0,0,.88-1.1h0Z" style="opacity:0.1"></path><polygon points="471.85 232.78 471.85 332.9 428.02 358.25 428.02 258.14 471.85 232.78" style="fill:#ebebeb"></polygon><polygon points="428.02 358.25 288.14 277.53 288.14 177.42 428.02 258.14 428.02 358.25" style="fill:#fafafa"></polygon><polygon points="385.37 333.62 383.58 332.59 383.58 232.47 385.37 233.5 385.37 333.62" style="fill:#e6e6e6"></polygon><polygon points="324.35 298.4 322.56 297.36 322.56 197.25 324.35 198.28 324.35 298.4" style="fill:#e6e6e6"></polygon><path d="M283.4,178a1.34,1.34,0,0,1,.8-1.11L331,149.83a4.26,4.26,0,0,1,3.84,0l141.91,81.85a1.34,1.34,0,0,1,.8,1.11v2.55a1.36,1.36,0,0,1-.8,1.11l-46.83,27.08a4.2,4.2,0,0,1-3.84,0L284.2,181.64a1.34,1.34,0,0,1-.8-1.1Z" style="fill:#ebebeb"></path><path d="M477.57,232.79v2.55a1.36,1.36,0,0,1-.8,1.11l-46.83,27.08A3.87,3.87,0,0,1,428,264V247.82l5.09-41.34,43.66,25.2A1.34,1.34,0,0,1,477.57,232.79Z" style="fill:#e0e0e0"></path><path d="M334.86,149.83l141.91,81.85a1.17,1.17,0,0,1,0,2.21L429.94,261a4.2,4.2,0,0,1-3.84,0L284.2,179.13a1.17,1.17,0,0,1,0-2.22L331,149.83A4.26,4.26,0,0,1,334.86,149.83Z" style="fill:#049DD9"></path><path d="M334.86,149.83l141.91,81.85a1.17,1.17,0,0,1,0,2.21L429.94,261a4.2,4.2,0,0,1-3.84,0L284.2,179.13a1.17,1.17,0,0,1,0-2.22L331,149.83A4.26,4.26,0,0,1,334.86,149.83Z" style="fill:#fff;opacity:0.6000000000000001"></path><path d="M332.94,150.84a2.44,2.44,0,0,1,1.19.26l141.63,81.69-46.55,26.92a2.76,2.76,0,0,1-2.38,0L285.21,178l46.54-26.92a2.47,2.47,0,0,1,1.19-.26m0-1.47a3.9,3.9,0,0,0-1.92.46L284.2,176.91a1.17,1.17,0,0,0,0,2.22L426.1,261a4.24,4.24,0,0,0,3.84,0l46.83-27.09a1.17,1.17,0,0,0,0-2.21L334.86,149.83a3.87,3.87,0,0,0-1.92-.46Z" style="fill:#fff"></path><path d="M414.39,265.18c0,.62-1.85.05-4.13-1.26l-5.44-3.13c-2.28-1.32-4.13-2.9-4.13-3.51v-1.12l13.7,7.9Z" style="fill:#e0e0e0"></path><path d="M315.58,208.18c0,.61-1.85,0-4.13-1.27L306,203.78c-2.28-1.31-4.12-2.89-4.12-3.51v-1.12l13.69,7.91Z" style="fill:#e0e0e0"></path><path d="M361.48,242.86c0,.62-1.85,0-4.13-1.26l-5.44-3.13c-2.28-1.32-4.13-2.9-4.13-3.51v-1.12l13.7,7.9Z" style="fill:#e0e0e0"></path><path d="M361.48,266.57c0,.62-1.85.06-4.13-1.26l-5.44-3.13c-2.28-1.32-4.13-2.89-4.13-3.51v-1.12l13.7,7.91Z" style="fill:#e0e0e0"></path><path d="M361.48,300.63c0,.62-1.85.05-4.13-1.27l-5.44-3.13c-2.28-1.31-4.13-2.89-4.13-3.51v-1.11l13.7,7.9Z" style="fill:#e0e0e0"></path><polygon points="323.46 235.6 384.76 270.99 384.76 272.97 323.46 237.58 323.46 235.6" style="fill:#e6e6e6"></polygon><polygon points="323.46 269.66 384.76 305.05 384.76 307.02 323.46 271.63 323.46 269.66" style="fill:#e6e6e6"></polygon></g></g><g id="freepik--Character--inject-4"><g id="freepik--character--inject-4"><g id="freepik--Sofa--inject-4"><polygon points="271.75 428.77 273.65 401.45 286.88 393.82 279.31 424.4 271.75 428.77" style="fill:#b16668"></polygon><polygon points="271.75 428.77 264.18 424.4 264.32 396.07 273.65 401.46 271.75 428.77" style="fill:#9a4a4d"></polygon><polygon points="179.03 375.25 180.94 347.94 194.17 340.3 186.6 370.89 179.03 375.25" style="fill:#b16668"></polygon><polygon points="179.03 375.25 171.46 370.89 171.61 342.56 180.94 347.94 179.03 375.25" style="fill:#9a4a4d"></polygon><polygon points="367.3 373.65 365.4 348.54 352.17 356.17 359.73 378.02 367.3 373.65" style="fill:#b16668"></polygon><polygon points="359.73 378.02 352.17 373.65 342.84 350.79 352.17 356.18 359.73 378.02" style="fill:#9a4a4d"></polygon><polygon points="271.75 400.35 368.53 344.52 368.53 353.26 271.75 409.09 271.75 400.35" style="fill:#b16668"></polygon><polygon points="165.8 347.92 271.75 409.09 271.75 400.35 165.79 339.18 165.8 347.92" style="fill:#9a4a4d"></polygon><polygon points="271.75 400.35 368.53 344.52 262.58 283.36 165.79 339.18 271.75 400.35" style="fill:#9a4a4d"></polygon><path d="M317.17,218l-27.33-1.41a21.22,21.22,0,0,0-11.74,2.78l-2.43,1.41a19.36,19.36,0,0,0-9.78,17.61l2.05,50a10.54,10.54,0,0,0,3.4,6.7c13.5,11.1,28.54,21.57,41.92,28.7A210.35,210.35,0,0,0,349,339a21.56,21.56,0,0,0,17.13-1.83h0a19.37,19.37,0,0,0,9.79-17.6L374,273.34C372.79,244.44,347.23,219.52,317.17,218Z" style="fill:#455a64"></path><path d="M313.26,323.73A210.35,210.35,0,0,0,349,339a21.56,21.56,0,0,0,17.13-1.83,19.37,19.37,0,0,0,9.79-17.6L374,273.34a52.15,52.15,0,0,0-.84-7.29L293.9,311.92A219.16,219.16,0,0,0,313.26,323.73Z" style="fill:#37474f"></path><path d="M344.5,337.72a217.15,217.15,0,0,1-31.24-14c-13.38-7.13-28.42-17.6-41.92-28.7a10.54,10.54,0,0,1-3.4-6.7L265.87,238c-.29-7.23,5.62-12.84,13.15-12.45l23,1.18c30.06,1.55,55.62,26.47,56.81,55.37l1.82,44.28C361,335.74,353.73,340.86,344.5,337.72Z" style="fill:#263238"></path><path d="M298.05,254.27l-21.73-94.14c-2.51-9.76-9.94-18.22-20.08-22.87a4,4,0,0,0-3.7.12l-89,51.52a2.92,2.92,0,0,0-1.51,3l17.35,112.74L198,313.19a8.62,8.62,0,0,0,7.91-.23l89.05-51.53A6.29,6.29,0,0,0,298.05,254.27Z" style="fill:#37474f"></path><path d="M256.24,137.26a4,4,0,0,0-3.7.12l-89,51.52a2.92,2.92,0,0,0-1.51,3l3.35,22.31L272.91,152A37.36,37.36,0,0,0,256.24,137.26Z" style="fill:#455a64"></path><path d="M179.34,304.66,162,191.92c-.39-2.58,2.55-4.35,5.2-3.13h0c10.15,4.65,17.58,13.1,20.09,22.86L209,305.8c1.49,5.78-5,10.14-11,7.39Z" style="fill:#263238"></path><path d="M365.11,289.1l-50.38-26.87c-6.1-3.25-15.76-3.15-21.58.22L218.6,305.59c-2.89,1.67-4.28,3.83-4.22,6h0v.05h0l2,48.71h0c.09,2.17,1.66,4.33,4.71,5.95l46.93,25c6.1,3.25,15.75,3.15,21.57-.22l71.26-41.23c2.59-1.5,4-3.4,4.19-5.33h0l4.75-48.82h0C370,293.32,368.46,290.89,365.11,289.1Z" style="fill:#37474f"></path><path d="M293.81,262.11c-.22.11-.45.22-.66.34L218.6,305.59c-2.89,1.67-4.28,3.83-4.22,6h0v.05l2,48.71h0c.09,2.17,1.66,4.33,4.71,5.95l46.93,25a23.28,23.28,0,0,0,10.89,2.37l4.58-47.14Z" style="fill:#263238"></path><path d="M293.15,262.45,218.6,305.59c-5.82,3.37-5.6,8.73.49,12l50.38,26.86c6.09,3.25,15.75,3.16,21.57-.21l74.56-43.14c5.82-3.37,5.6-8.74-.5-12l-50.37-26.87C308.63,259,299,259.08,293.15,262.45Z" style="fill:#455a64"></path></g><g id="freepik--character--inject-4"><g id="freepik--Bottom--inject-4"><path d="M320.86,350.28c-5.76-.29-10.27,4.69-10.61,6.18-.47,2,.08,6,2.82,10.74a34.31,34.31,0,0,1,3.81,15.29c0,4.55-1.24,16,3.78,21.24s15.53,9.35,18.48,1.32c1-2.63-2.14-11.21-3.73-17.53-3.16-12.58-5.85-25.11-5.85-25.11Z" style="fill:#455a64"></path><path d="M319.93,360.61a124.22,124.22,0,0,1,3,18.6c.46,6.85,2.28,11.23,4.9,14.08,2.89,3.15,9.57,4.49,8.2-2.49-.94-4.87-6.48-28.39-6.48-28.39Z" style="fill:#ffa8a7"></path><path d="M312,354.05c.09,4.24,3.29,15.24,9.78,24.14,6.36,8.72,15.46,18.84,17.56,25.27-.1-3-1.82-8.44-3.17-13.27l-.09-.32c-.08-.28-.16-.56-.23-.83s-.07-.26-.1-.39c-.1-.35-.19-.71-.28-1.06l0-.07c-1-3.93-1.93-7.85-2.76-11.4-.66-2.83-1.25-5.41-1.73-7.56-.24-1.07-.45-2-.64-2.86-.09-.41-.17-.79-.25-1.14l-.47-2.15-8.7-12.13c-.38,0-.75,0-1.11,0A12.62,12.62,0,0,0,312,354.05Z" style="opacity:0.15"></path><path d="M339.11,273.89c-19.85-12.3-45.13-25-45.13-25l-56.76,7.58,62.8,39,26.89,15s4.83-.8,2.51,7c-.74,2.48-1.75,7.42-2.78,13L341.25,362s6.51-11.49,12.82-33.2c6.4-22,6.31-29,5.09-33.18C357.57,290.19,355.33,283.93,339.11,273.89Z" style="fill:#ffa8a7"></path><path d="M293,283.43c.8.45,4.31,2.48,5.24,3,12.45,7.28,33.67,21.65,36.5,28.5,1.76,4.24,8.08,16.49,12.37,32.73,0,0-1.31-10.89-2.65-21.56-1.87-14.92-5-18.91-10.28-24-5.16-4.92-31.44-18-33.27-18.86,4-3.79,5.52-11,5.21-14.55C306.14,268.7,300.74,280,293,283.43Z" style="fill:#f28f8f"></path><path d="M336.45,394.55c-1.43-.09-1.56,2.52-2.48,5.84-.6,2.16-1.73,5.75-.61,9.94s7.31,5,10.29,10.54,7.2,15.5,18.15,18.76,19.75-.11,22.11-3.51.77-6.89-6-11.7c-7.21-5.11-9.24-6.61-9.24-6.61Z" style="fill:#455a64"></path><path d="M376.82,424.08c-1-1.21-3.83-4-5.06-5.52-5.66-6.9-10.68-14.23-13.64-21.79-1.32-3.36-14.63-67.29-17.32-77.14-1.8-6.6-3.91-10.16-9.7-14.52-13.45-10.13-37.69-21.63-37.69-21.63s0-20.53-5-31.42H226.74a97.3,97.3,0,0,0,10.48,41.08c3.63,6.88,13.34,14.4,29.89,21.81,16.08,7.19,35.56,15,39.54,16.45s3.9,4.18,5.31,11.87c1.45,7.91,2.21,11.22,10.84,26.14,4.88,8.43,10.09,13.38,12.21,19.75a18.46,18.46,0,0,1,1.2,8.37,7.64,7.64,0,0,0,1.76,5c1.2,1.55,2.46,3,3.81,4.45,3.57,3.82,8.93,13.82,15,18.61s17.07,4.48,19.73,2.07A2.3,2.3,0,0,0,376.82,424.08Z" style="fill:#ffa8a7"></path></g><g id="freepik--Top--inject-4"><g id="freepik--Arm--inject-4"><path d="M375,251.62c-2.21-.48-4.5-.71-6.68-1.27-1.5-.39-3-.95-4.46-1.39-.45-.13-3.49-1-3.31-2.28.16-1.05,4.62.15,9.4-.63s5.21-4.25,2.65-4.53A46.37,46.37,0,0,1,359,238.06c-4.94-2.11-13.23,0-17-1.17-4.76-1.44-28.09-13-28.09-13s-13.8-16.06-21.81-23.72c-8.66-8.29-11.5-11.13-20-12.61a59.25,59.25,0,0,0-10.47-.58l13.77,30.27s7.29,7.48,13.77,14.54c6.93,7.54,7.3,9.18,15.12,11.78,8.77,2.91,35.95,10.84,35.95,10.84,4,2.3,7.48,5.86,11.94,7.07a46.63,46.63,0,0,0,6.18,1.14,11,11,0,0,0,5.44-.28,24.72,24.72,0,0,1,2.69-1.19c.87-.19,1.82,0,2.7-.17,2.4-.38,3.56-1.72,5.07-3.41,1.1-1.23,2.75-1.48,4.05-2.46C381.22,253,376.61,252,375,251.62Z" style="fill:#ffa8a7"></path><path d="M356.77,247.14a18.24,18.24,0,0,0-2.29.47,11.41,11.41,0,0,1-2.8.18,11.13,11.13,0,0,1-7.16-3.4c-.2-.21-.29.14-.17.3a10.32,10.32,0,0,0,5.77,3.73,10.88,10.88,0,0,0,3.64.22c1-.12,2.51-.31,3.17-1.14C357,247.4,356.91,247.13,356.77,247.14Z" style="fill:#f28f8f"></path><path d="M262.71,186c8.18,0,14.34,1.12,18.8,4.26s12.93,11.11,18.78,17,7.08,7.41,7.08,7.41,0,4.68-7.24,11.54-10.62,6.93-10.62,6.93l-26.8-25.4Z" style="fill:#ebebeb"></path></g><path d="M247.72,305.3C226,291.89,224.81,276.18,221,246.11c-3.18-25.22-4.4-44.41,2-48.57a133.38,133.38,0,0,1,17.71-8.16c6.76-2.13,21.94-3.43,21.94-3.43h0c10.64,5.08,20.93,11.35,26.4,17.88,5.73,6.83,5.83,17.4.43,25.45l4.87,18.23s8.89,4.21,20.78,11c13.47,7.66,37.59,19.86,42.44,29.59s3.55,18.5,0,32.52C350.26,337.4,321.86,345,312,345.39c-1-2.66-1.08-5.14-2.36-8.88-.89-2.61.11-3.2-13.39-7.91A242.73,242.73,0,0,1,247.72,305.3Z" style="fill:#fafafa"></path><path d="M347.26,332.49a46.66,46.66,0,0,1-13.91,4,22.06,22.06,0,0,1-14-2.91c-3.62-2.32-6.26-5.89-9.61-8.59a49.28,49.28,0,0,0-6.2-4l-19.24-11.2c-3.17-1.85-6.6-3.52-9.62-5.61a38.09,38.09,0,0,1-6.63-6.38c-2.17-2.5-5.31-7.72-2.48-10.83a10.51,10.51,0,0,1,6.12-3.22c2.76-.42,5.58-.32,8.32-.85s5.53-1.81,6.92-4.23c.76-1.33,1.13-3,2.43-3.82.34-.21.72-.34,1.05-.56a8.61,8.61,0,0,0,1.82-2.34c2.94-4,7.78-5.3,11.39-8.48,1.59-1.39-.65-2.12-1.78-2.25a10,10,0,0,0-4.39.75,37.6,37.6,0,0,0-7.81,4.41c-4.05,2.75-7.84,5.93-12.29,8a21.17,21.17,0,0,1-6.13,1.55,118.37,118.37,0,0,1-28.4.46c-4.44-.47-9-1.22-12.86-3.37a15.92,15.92,0,0,1-6-5.62c3,17,7.86,28.06,23.75,37.87a242.73,242.73,0,0,0,48.49,23.3c13.5,4.71,12.5,5.3,13.39,7.91,1.28,3.74,1.37,6.22,2.36,8.88,7.22-.26,24.26-4.39,35.83-13.12Z" style="fill:#ebebeb"></path><path d="M335.62,305.08a39.18,39.18,0,0,1,3.86,8.46,65.25,65.25,0,0,0,2.07,6.44c.19.43.49.9.95.94s1-.58,1-1.15a44.74,44.74,0,0,0-.12-11.5c-1.48-8.5-7.08-14.54-14-19.25a35.83,35.83,0,0,0-15.9-6,1.66,1.66,0,0,0-1.39.27c-.65.64.06,1.7.75,2.29C320.5,292.11,330.21,296.61,335.62,305.08Z" style="fill:#f5f5f5"></path><path d="M269.26,235.33c-6.54,6.84-19.83,8.62-27.69.39,0,0,2.19,8.49,13.81,8.33S269.26,235.33,269.26,235.33Z" style="fill:#e0e0e0"></path><path d="M236.07,163.4a39.53,39.53,0,0,1,4.33-6.75,33.66,33.66,0,0,1,4-4.28,27,27,0,0,1,10.78-5.82,27.42,27.42,0,0,1,6.09-1c.36,0,5.1.11,5.1.1a18.31,18.31,0,0,0-3.65-7.08A20.26,20.26,0,0,0,249,131.38a31,31,0,0,0-19.3,5.5c-5.25,3.62-13.18,14.28-6.24,30.66,2.54,6,10.22,12.16,10.22,12.16s-.22-4.71-.28-6a15.53,15.53,0,0,1,.95-6.14A32.84,32.84,0,0,1,236.07,163.4Z" style="fill:#049DD9"></path><path d="M234.61,149.92a10.8,10.8,0,0,0-3,3.22,16.77,16.77,0,0,0-2.06,4.1,20.05,20.05,0,0,0-1,4.85,12.52,12.52,0,0,0,.29,4.88c.07.2.49.35.51.05.15-1.58-.08-3.18,0-4.78a20.51,20.51,0,0,1,.87-4.65,18.38,18.38,0,0,1,2-4.36,16.5,16.5,0,0,1,1.21-1.67c.4-.49.88-.93,1.26-1.44C234.76,150.06,234.71,149.86,234.61,149.92Z" style="opacity:0.15"></path><path d="M232.15,144a9.63,9.63,0,0,0-1.36,1.56,15.38,15.38,0,0,0-1.1,1.88,20,20,0,0,0-1.43,3.92,39.69,39.69,0,0,0-.17,14.87c0,.15.24.25.26,0a59.62,59.62,0,0,0-.21-6.27,34.5,34.5,0,0,1,.29-6.1,22.8,22.8,0,0,1,1.26-5,17.43,17.43,0,0,1,1.08-2.37c.2-.38.43-.75.66-1.11s.5-.86.79-1.26C232.25,144.13,232.22,144,232.15,144Z" style="opacity:0.15"></path><g id="freepik--Face--inject-4"><path d="M257.5,143.81c6.48.29,8.86,1.87,8.86,1.87a21.6,21.6,0,0,1,1.64,9.87c-.19,2.22,1.36,4.69,1.51,6.91.85,12.29-3.63,18.08-5.7,19.49s-4.48,2-8.84,2.09l.26,5.06a46.65,46.65,0,0,1,9,17.24A95.3,95.3,0,0,1,234.3,192l-.92-17.7s-2,2.54-6.31.54c-4.56-2.15-5.6-8.17-3.72-11.61a6.37,6.37,0,0,1,5-3.29,4.34,4.34,0,0,1,2.34.48c.36.17,2,1.49,2.16,1.28s.06-.42.13-.64c4.75-13.29,18-16.91,23.45-17.21C256.74,143.85,257.11,143.79,257.5,143.81Z" style="fill:#ffa8a7"></path><path d="M255,184c-4.55.25-16.19-2-18.33-9.29a9.64,9.64,0,0,0,4,7.89c4.76,3.76,14.47,4,14.47,4Z" style="fill:#f28f8f"></path><path d="M250.6,159.75a2.07,2.07,0,1,1-2.45-1.71A2.1,2.1,0,0,1,250.6,159.75Z" style="fill:#263238"></path><path d="M265,158.73a2.07,2.07,0,1,1-2.4-1.78A2.12,2.12,0,0,1,265,158.73Z" style="fill:#263238"></path><path d="M249.22,153l-4.46,2.85a2.55,2.55,0,0,1,.71-3.63A2.78,2.78,0,0,1,249.22,153Z" style="fill:#263238"></path><path d="M260.29,152.17l5.25.7a2.55,2.55,0,0,0-2.18-3A2.78,2.78,0,0,0,260.29,152.17Z" style="fill:#263238"></path><polygon points="254.78 156.92 256.28 169.23 262.95 166.61 254.78 156.92" style="fill:#f28f8f"></polygon><path d="M250.7,171.51v0c0,.23.31.47.46.62a6,6,0,0,0,4.06,1.56,5,5,0,0,0,1.17-.11c.16,0,.47-.18.27-.33a2.51,2.51,0,0,0-.84-.14,7.22,7.22,0,0,1-1.63-.26,9.93,9.93,0,0,1-2.92-1.39C251.07,171.36,250.69,171.18,250.7,171.51Z" style="fill:#b16668"></path></g><path d="M232.51,161.65c.75,1.28,1.39,1.2,2-1a23.75,23.75,0,0,1,10.68-12c6.38-3.25,15.57-4.63,21.56-1.87l-.95-2.86c-7.43-3.3-16.4-.54-21.68,2.34S232.23,156.16,232.51,161.65Z" style="fill:#f5f5f5"></path><path d="M224.12,176.36a8.61,8.61,0,0,0-2.72,4l-1.8,4.22a18.93,18.93,0,0,0,5.27.64A7,7,0,0,0,230,182c.88-1.41,1.91-4.86.2-6.06C228.75,174.92,225.5,175.44,224.12,176.36Z" style="fill:#049DD9"></path><path d="M224.12,176.36a8.61,8.61,0,0,0-2.72,4l-1.8,4.22a18.93,18.93,0,0,0,5.27.64A7,7,0,0,0,230,182c.88-1.41,1.91-4.86.2-6.06C228.75,174.92,225.5,175.44,224.12,176.36Z" style="opacity:0.2"></path><path d="M235.54,181.71a8.49,8.49,0,0,1-1.06,4.71l-1.84,4.21a19.21,19.21,0,0,1-4.08-3.41,7,7,0,0,1-1.18-5.95c.43-1.61,2.23-4.72,4.29-4.29C233.43,177.34,235.27,180.07,235.54,181.71Z" style="fill:#049DD9"></path><path d="M235.54,181.71a8.49,8.49,0,0,1-1.06,4.71l-1.84,4.21a19.21,19.21,0,0,1-4.08-3.41,7,7,0,0,1-1.18-5.95c.43-1.61,2.23-4.72,4.29-4.29C233.43,177.34,235.27,180.07,235.54,181.71Z" style="opacity:0.1"></path><path d="M231.34,183.35a9.71,9.71,0,0,1-.22-1.62,11,11,0,0,1,0-1.62c0-.28.07-.56.11-.84a1.23,1.23,0,0,0,0-.71.16.16,0,0,0-.12-.12c0-.16-.17-.33-.31-.2a3.75,3.75,0,0,0-.64,1.16,8,8,0,0,0-.43,1.28,7.27,7.27,0,0,0-.13,2.75c0,.1.15.14.15,0a9.06,9.06,0,0,1,.32-2.59,8.67,8.67,0,0,1,.45-1.2c.08-.19.18-.38.28-.57h0a.11.11,0,0,0,0,0,7.83,7.83,0,0,0-.1.83,10.85,10.85,0,0,0,0,1.71,12,12,0,0,0,.26,1.57,4.76,4.76,0,0,0,.6,1.64s.07,0,.06-.06C231.63,184.32,231.44,183.84,231.34,183.35Z" style="opacity:0.15"></path></g></g><g id="freepik--sofa-arm--inject-4"><path d="M214.85,277l-27.3-1.35a21.28,21.28,0,0,0-11.73,2.82l-2.43,1.41a19.42,19.42,0,0,0-9.77,17.63l2,50a10.49,10.49,0,0,0,3.4,6.69c13.48,11.07,28.51,21.5,41.87,28.6a209.54,209.54,0,0,0,35.66,15.15,21.53,21.53,0,0,0,17.11-1.87h0a19.43,19.43,0,0,0,9.78-17.63l-1.89-46.19C270.41,303.33,244.87,278.47,214.85,277Z" style="fill:#455a64"></path><path d="M210.94,382.77a209.54,209.54,0,0,0,35.66,15.15,21.53,21.53,0,0,0,17.11-1.87,19.43,19.43,0,0,0,9.78-17.63l-1.89-46.19a50.39,50.39,0,0,0-.84-7.28L191.6,371A218,218,0,0,0,210.94,382.77Z" style="fill:#37474f"></path><path d="M242.15,396.68a216.18,216.18,0,0,1-31.21-13.91c-13.36-7.1-28.39-17.53-41.87-28.6a10.49,10.49,0,0,1-3.4-6.69l-2.07-50.29c-.29-7.24,5.61-12.86,13.13-12.49l22.94,1.13c30,1.47,55.57,26.33,56.75,55.23l1.82,44.27C258.62,394.67,251.38,399.8,242.15,396.68Z" style="fill:#263238"></path></g><g id="freepik--arm--inject-4"><path d="M298.72,259.06c-3.32.38-6.58,1-9.88,1.59a47.61,47.61,0,0,1-10.18.76c-.15,0-.34-.06-.33-.21a.26.26,0,0,1,.11-.16,38.45,38.45,0,0,0,3.83-3.23,4.58,4.58,0,0,0,1.14-4.62.73.73,0,0,0-.19-.3c-.27-.25-.71-.12-1,0-1,.5-1.88,1.2-3,1.62a25.59,25.59,0,0,1-3.31,1.08,41.55,41.55,0,0,0-4.14,1,15.32,15.32,0,0,0-4.88,3.15,8.74,8.74,0,0,1-4.15,2.41c-3.53.87-6.48.84-14.11-.16-11.95-1.55-18.33-2.64-18.33-2.64l.34-29.34c0-16.31-3.88-28.5-8.48-31.35-4,2.24-9,6.17-11,9.2-3.52,5.4-4.05,9.26-4.33,26.26-.19,11.3-.56,18.31-.24,28.48.51,15.85,1.93,16.71,16,17.78,9.65.74,19.52-.08,27.48-.87h0c3.28-.31,24.33-.59,27.78-1.34a14.2,14.2,0,0,0,7.8-4.37c.49-.57.95-1.19,1.44-1.78a4.41,4.41,0,0,1,1.29-1.29c.43-.23.9-.39,1.32-.64a4,4,0,0,0,1.82-2.87c.27-1.66,2-2.17,3.38-2.7a81.27,81.27,0,0,0,8.41-3.46.4.4,0,0,0,.17-.17.43.43,0,0,0,0-.25C303.05,258.68,300.23,258.89,298.72,259.06Z" style="fill:#ffa8a7"></path><path d="M230.3,259.38c-5.49-.42-13.15,1-16.33,4,0,0,2-5.78,16.36-6.63Z" style="fill:#f28f8f"></path><path d="M223.06,197.54c-8.89,4.6-12.78,8.11-15.42,15.64s-2.54,17.19-2.9,27.35-.43,11.56-.43,11.56a28,28,0,0,0,14.16,3.81c9.83-.23,13.76-3.58,13.76-3.58s.88-24.21,0-34S227.56,199.73,223.06,197.54Z" style="fill:#ebebeb"></path></g></g><g id="freepik--chemo-bag--inject-4"><path d="M158.7,424.15a6,6,0,0,1-.13,1.25,2.88,2.88,0,0,1-1.12,1.74l0,0a3.32,3.32,0,0,1-3.46-.27,10.49,10.49,0,0,1-4.75-8.23,3.35,3.35,0,0,1,1.34-3v0l.22-.13h0a2.88,2.88,0,0,1,2-.08,5.48,5.48,0,0,1,1.16.51A10.46,10.46,0,0,1,158.7,424.15Z" style="fill:#455a64"></path><path d="M157.41,413.94a4.35,4.35,0,0,0-2.12-.64,2.46,2.46,0,0,0-1.34.38l-.12.06-3.06,1.77a2.88,2.88,0,0,1,2-.08,5.48,5.48,0,0,1,1.16.51,10.46,10.46,0,0,1,4.75,8.21,6,6,0,0,1-.13,1.25,2.88,2.88,0,0,1-1.12,1.74l3.14-1.82,0,0,.27-.16.08-.05a3.52,3.52,0,0,0,1.17-2.92A10.52,10.52,0,0,0,157.41,413.94Z" style="fill:#263238"></path><path d="M107.31,396.52a5.87,5.87,0,0,1-.14,1.24,2.84,2.84,0,0,1-1.12,1.74l0,0a3.28,3.28,0,0,1-3.45-.27A10.46,10.46,0,0,1,97.81,391a3.38,3.38,0,0,1,1.33-3h0l.23-.14h0a3,3,0,0,1,2-.08,5.33,5.33,0,0,1,1.17.51A10.49,10.49,0,0,1,107.31,396.52Z" style="fill:#455a64"></path><path d="M106,386.31a4.34,4.34,0,0,0-2.11-.65,2.53,2.53,0,0,0-1.34.38l-.12.07-3.07,1.76a3,3,0,0,1,2-.08,5.33,5.33,0,0,1,1.17.51,10.49,10.49,0,0,1,4.75,8.22,5.87,5.87,0,0,1-.14,1.24,2.84,2.84,0,0,1-1.12,1.74l3.15-1.82,0,0,.27-.16a.25.25,0,0,0,.08-.05,3.5,3.5,0,0,0,1.16-2.92A10.48,10.48,0,0,0,106,386.31Z" style="fill:#263238"></path><path d="M116.48,435a6,6,0,0,0,.13,1.24,2.88,2.88,0,0,0,1.12,1.74l0,0a3.32,3.32,0,0,0,3.46-.27,10.49,10.49,0,0,0,4.75-8.23,3.36,3.36,0,0,0-1.34-3v0l-.22-.13h0a3,3,0,0,0-2-.08,5.48,5.48,0,0,0-1.16.51A10.46,10.46,0,0,0,116.48,435Z" style="fill:#455a64"></path><path d="M117.77,424.73a4.46,4.46,0,0,1,2.12-.64,2.55,2.55,0,0,1,1.34.38l.12.06,3.06,1.77a3,3,0,0,0-2-.08,5.48,5.48,0,0,0-1.16.51,10.46,10.46,0,0,0-4.75,8.22,6,6,0,0,0,.13,1.24,2.88,2.88,0,0,0,1.12,1.74l-3.14-1.82,0,0-.27-.16a.14.14,0,0,1-.08-.05A3.49,3.49,0,0,1,113,433,10.52,10.52,0,0,1,117.77,424.73Z" style="fill:#263238"></path><path d="M83.11,418.6a6,6,0,0,0,.14,1.25,2.88,2.88,0,0,0,1.12,1.74l0,0a3.27,3.27,0,0,0,3.45-.26,10.5,10.5,0,0,0,4.76-8.23,3.4,3.4,0,0,0-1.34-3h0l-.23-.13h0a2.88,2.88,0,0,0-2-.08,5.55,5.55,0,0,0-1.17.51A10.48,10.48,0,0,0,83.11,418.6Z" style="fill:#455a64"></path><path d="M84.41,408.39a4.32,4.32,0,0,1,2.12-.64,2.48,2.48,0,0,1,1.33.37l.13.07L91.05,410a2.88,2.88,0,0,0-2-.08,5.55,5.55,0,0,0-1.17.51,10.48,10.48,0,0,0-4.75,8.21,6,6,0,0,0,.14,1.25,2.88,2.88,0,0,0,1.12,1.74l-3.14-1.82-.06,0-.26-.16-.08-.05a3.5,3.5,0,0,1-1.17-2.92A10.49,10.49,0,0,1,84.41,408.39Z" style="fill:#263238"></path><path d="M147.6,398.56a6,6,0,0,0,.14,1.25,2.89,2.89,0,0,0,1.12,1.73l0,0a3.28,3.28,0,0,0,3.45-.27,10.46,10.46,0,0,0,4.75-8.23,3.38,3.38,0,0,0-1.33-3h0l-.23-.13h0a2.93,2.93,0,0,0-2-.09,6.12,6.12,0,0,0-1.17.51A10.52,10.52,0,0,0,147.6,398.56Z" style="fill:#455a64"></path><path d="M148.9,388.35a4.32,4.32,0,0,1,2.12-.64,2.48,2.48,0,0,1,1.33.37l.12.07,3.07,1.77a2.93,2.93,0,0,0-2-.09,6.12,6.12,0,0,0-1.17.51,10.52,10.52,0,0,0-4.75,8.22,6,6,0,0,0,.14,1.25,2.89,2.89,0,0,0,1.12,1.73l-3.14-1.82-.06,0-.27-.16-.08-.06a3.49,3.49,0,0,1-1.16-2.91A10.49,10.49,0,0,1,148.9,388.35Z" style="fill:#263238"></path><polygon points="119.24 388.52 102.28 383.65 102.28 387.28 119.24 397.06 119.24 388.52" style="fill:#ebebeb"></polygon><polygon points="119.24 388.52 120.92 387.49 103.9 382.85 102.28 383.65 119.24 388.52" style="fill:#f5f5f5"></polygon><polygon points="126.58 399.33 150.63 390.32 150.63 386.65 126.58 388.8 126.58 399.33" style="fill:#ebebeb"></polygon><polygon points="150.63 386.65 148.86 386.19 125.15 387.72 126.58 388.8 150.63 386.65" style="fill:#f5f5f5"></polygon><path d="M127.22,398.17c0,2.72-8.36,2.72-8.36,0V366.64h8.36Z" style="fill:#e6e6e6"></path><path d="M120.08,364.93c-1.63.95-1.63,2.47,0,3.42a6.57,6.57,0,0,0,5.92,0c1.63-1,1.63-2.47,0-3.42A6.57,6.57,0,0,0,120.08,364.93Z" style="fill:#e0e0e0"></path><path d="M121,392l-4.61,29.86h3.15L123.8,392A5.06,5.06,0,0,1,121,392Z" style="fill:#f5f5f5"></path><polygon points="123.8 391.98 123.8 400.18 119.5 426.9 119.5 421.84 123.8 391.98" style="fill:#ebebeb"></polygon><rect x="116.35" y="421.84" width="3.14" height="5.05" style="fill:#e0e0e0"></rect><polygon points="125.23 399.94 156.24 416.2 156.24 411.19 125.23 392.01 125.23 399.94" style="fill:#ebebeb"></polygon><path d="M125.23,392a3.45,3.45,0,0,0,2-.91l31,18.78-1.94,1.31Z" style="fill:#f5f5f5"></path><polygon points="156.24 416.2 156.24 411.19 158.18 409.88 158.18 414.73 156.24 416.2" style="fill:#e0e0e0"></polygon><polygon points="86.14 410.45 119.27 399.11 119.27 391.67 86.14 405.45 86.14 410.45" style="fill:#ebebeb"></polygon><path d="M119.27,391.67c-.27-.07-.39-.56-.41-1.29l-33.7,14.67,1,.4Z" style="fill:#f5f5f5"></path><polygon points="85.16 405.05 85.16 409.89 86.14 410.45 86.14 405.45 85.16 405.05" style="fill:#e0e0e0"></polygon><rect x="116.35" y="421.84" width="3.14" height="5.05" style="opacity:0.1"></rect><polygon points="156.24 416.2 156.24 411.19 158.18 409.88 158.18 414.73 156.24 416.2" style="opacity:0.1"></polygon><polygon points="85.16 405.05 85.16 409.89 86.14 410.45 86.14 405.45 85.16 405.05" style="opacity:0.1"></polygon><path d="M120.6,84.78V366.32a1.2,1.2,0,0,0,.7,1,3.79,3.79,0,0,0,3.44,0,1.21,1.21,0,0,0,.72-1V84.78A2.44,2.44,0,0,0,123,82.34a2.44,2.44,0,0,0-2.42,2.44Z" style="fill:#455a64"></path><path d="M162.11,116.49l-2.43-1.4a6.35,6.35,0,0,0-6.35,0,3.39,3.39,0,0,1-3.36,0l-1.34-.77a3.31,3.31,0,0,1-1.2-1.18l-3.85-6.42a6.38,6.38,0,0,0-2.27-2.23L121.14,92.81v3.45l18.67,10.81a3.34,3.34,0,0,1,1.21,1.18l3.85,6.42a6.3,6.3,0,0,0,2.27,2.23l1.33.77a6.39,6.39,0,0,0,6.36,0,3.41,3.41,0,0,1,3.36,0l2.43,1.41a1.52,1.52,0,0,0,.74.2,1.49,1.49,0,0,0,.75-2.79Z" style="fill:#455a64"></path><path d="M158.8,160.11c3.81-4.54,5.08-8.87,5.26-10.63.56-5.31-1.1-21.41-1.73-28.19s-1.73-8-3.46-7.91-3.47.57-4.73-.85-2.2-2.79-5-1.15-3.78,4.09-5,7-3,4.42-4.73,6.3-3.79,4.41-4.42,11.92-1.67,24.93-.77,30.19c.34,2,1.68,4.8,6.15,4.56.38,0,.62.36.56.93l-.18,1.63a1.61,1.61,0,0,1-.83,1.28l-.27.1a2.2,2.2,0,0,0-1.12,1.77l-.68,7.71c-.07.73.29,1.16.81,1l3.09-1.12a2.17,2.17,0,0,0,1.1-1.67l1.1-7.89c.12-.81-.28-1.23-.84-1.06-.38.11-.63-.22-.57-.77,0,0,0-.51.12-1.14a1.78,1.78,0,0,1,1.1-1.42c.34-.1.71-.22,1-.32a28.62,28.62,0,0,0,4.44-2.12l.88-.52c.47-.3.86,0,.88.6l0,9.88c0,.92.49,1.36,1.32.88a2.68,2.68,0,0,0,1.24-2.48l-.06-10.25a2.17,2.17,0,0,1,.73-1.59c.53-.44,1.05-.88,1.53-1.33s1-.34,1.08.28l.17,1.14a1.64,1.64,0,0,1-.53,1.35l-.26.22a2.17,2.17,0,0,0-.71,1.85l1.1,6.06c.1.58.56.72,1,.33l2.86-2.35a2.21,2.21,0,0,0,.73-1.78l-.72-6.4c-.07-.65-.57-.77-1.1-.37-.35.27-.69.14-.75-.29l-.27-1.76A2.2,2.2,0,0,1,158.8,160.11Zm-9.7-40.51c-.95.55-1.72,0-1.72-1.3a4.14,4.14,0,0,1,1.72-3.3c1-.55,1.72,0,1.72,1.31A4.12,4.12,0,0,1,149.1,119.6Z" style="fill:#f0f0f0"></path><path d="M161.33,128.24c-.66-6.91-1.48-12.79-4.63-10.84s-10.38,6.26-12.62,7.29a11.37,11.37,0,0,0-5.64,6c-1.44,4.54-1.78,11.48-1.88,15s8.08-.68,14.26-4.13S161.33,128.24,161.33,128.24Z" style="fill:#e0e0e0"></path><path d="M137.52,144.51a.48.48,0,0,0-.07.2c-.41,6.95-.81,15.09-1,19h0a4.23,4.23,0,0,0,4.31,4.45c2,0,4.7-.79,8.35-2.89,9.37-5.41,12.32-11.83,12.83-14.29h0a23.7,23.7,0,0,0,.42-3.67,145.11,145.11,0,0,0-1-18.74.4.4,0,0,0-.41-.33c-.68,0-2.34.38-4.62,2.46-3,2.76-6.12,6.55-13.33,9.86C139.16,142.33,137.8,144.09,137.52,144.51Z" style="fill:#049DD9"></path><path d="M137.52,144.51a.48.48,0,0,0-.07.2c-.41,6.95-.81,15.09-1,19h0a4.23,4.23,0,0,0,4.31,4.45c2,0,4.7-.79,8.35-2.89,9.37-5.41,12.32-11.83,12.83-14.29h0a23.7,23.7,0,0,0,.42-3.67,145.11,145.11,0,0,0-1-18.74.4.4,0,0,0-.41-.33c-.68,0-2.34.38-4.62,2.46-3,2.76-6.12,6.55-13.33,9.86C139.16,142.33,137.8,144.09,137.52,144.51Z" style="fill:#fff;opacity:0.2"></path><path d="M152.18,170.39a.73.73,0,0,1-.73-.71l-.2-7.43a.73.73,0,0,1,.71-.75h0a.72.72,0,0,1,.73.71l.2,7.43a.72.72,0,0,1-.71.75Z" style="fill:#049DD9"></path><g style="opacity:0.2"><path d="M152.18,170.39a.73.73,0,0,1-.73-.71l-.2-7.43a.73.73,0,0,1,.71-.75h0a.72.72,0,0,1,.73.71l.2,7.43a.72.72,0,0,1-.71.75Z" style="fill:#fff"></path></g><path d="M137.52,144.51a.48.48,0,0,0-.07.2c-.41,6.95-.81,15.09-1,19a4.23,4.23,0,0,0,4.31,4.45c2,0,4.7-.79,8.35-2.89,9.37-5.41,12.32-11.83,12.83-14.29a23.7,23.7,0,0,0,.42-3.67c0-.52,0-1.1,0-1.69-.28,6-7.88,13.52-14.6,15s-5.4-6.29-4.66-20.14l-.08,0C139.16,142.33,137.8,144.09,137.52,144.51Z" style="fill:#049DD9"></path><path d="M158.14,150.55a85.29,85.29,0,0,1-15.7,9.06c-.23.1-.4-.06-.4-.36V147a1.06,1.06,0,0,1,.42-.84q7.83-5,15.66-9c.23-.12.42,0,.42.35v12.31A1.1,1.1,0,0,1,158.14,150.55Z" style="fill:#fff"></path><polygon points="151.79 145.99 151.79 142.5 149.18 144.01 149.18 147.5 146.56 149.01 146.56 152.49 149.18 150.98 149.18 154.47 151.79 152.96 151.79 149.47 154.41 147.96 154.41 144.48 151.79 145.99" style="fill:#049DD9"></polygon><path d="M156.62,119.74c-4.87,2.5-8.24,4.41-8.3,5.74s6.55-2.14,8.62-.4,2.08.71,2.08-1.19S158.64,118.7,156.62,119.74Z" style="fill:#fafafa"></path><path d="M150,115.08a3.39,3.39,0,0,0,3.36,0,6.35,6.35,0,0,1,6.35,0l2.43,1.4a1.49,1.49,0,0,1-.75,2.79,1.52,1.52,0,0,1-.74-.2l-2.43-1.41a3.41,3.41,0,0,0-3.36,0,6.39,6.39,0,0,1-6.36,0" style="fill:#455a64"></path><path d="M190.46,304.44a39.26,39.26,0,0,1-39.21-39.21V174.05a.94.94,0,1,1,1.88,0v91.18a37.33,37.33,0,0,0,74.65,0v-4a.94.94,0,1,1,1.88,0v4A39.25,39.25,0,0,1,190.46,304.44Z" style="fill:#f0f0f0"></path><path d="M190.46,303.73A38.55,38.55,0,0,1,152,265.23V171.49a.23.23,0,0,1,.24-.23.23.23,0,0,1,.23.23v93.74a38,38,0,0,0,76.07,0v-4a.23.23,0,0,1,.23-.24.24.24,0,0,1,.24.24v4A38.54,38.54,0,0,1,190.46,303.73Z" style="fill:#049DD9"></path><polygon points="224.18 260.37 231.38 258.54 232.27 261.35 225.08 263.32 224.18 260.37" style="fill:#455a64"></polygon></g></g><g id="freepik--speech-bubble--inject-4"><g id="freepik--speech-bubble--inject-4"><g id="freepik--speech-bubble--inject-4"><path d="M242.73,71.83A28.35,28.35,0,0,1,244.6,92.6l-1.1,3.05a28.35,28.35,0,0,1-53.68-17.71l1-3.1a28.35,28.35,0,0,1,52-3Z" style="fill:#fff"></path><path d="M203.53,57.11A30.79,30.79,0,0,0,226.47,114l7.1,6.4a1.79,1.79,0,0,0,3-1.5l-.93-9.52a30.78,30.78,0,0,0-32.09-52.29Zm39.2,14.72A28.35,28.35,0,0,1,244.6,92.6l-1.1,3.05a28.35,28.35,0,0,1-53.68-17.71l1-3.1a28.35,28.35,0,0,1,52-3Z" style="fill:#455a64"></path><path d="M242.73,71.83A28.35,28.35,0,0,1,244.6,92.6l-1.1,3.05a28.35,28.35,0,0,1-53.68-17.71l1-3.1a28.35,28.35,0,0,1,52-3Z" style="fill:#fff"></path></g><g id="freepik--Ribbon--inject-4"><path d="M226.57,77.63h0c0-.21,0-.41,0-.62Zm0-5.57c.11-4.36-2.05-9.08-9.19-9.08-6.93,0-9.3,4.37-9.19,8.67v5.57c-.11-4.3,2.26-8.67,9.19-8.67s9.08,4.29,9.18,8.46v-5Z" style="fill:#049DD9"></path><path d="M226.57,77.63h0c0-.21,0-.41,0-.62Zm0-5.57c.11-4.36-2.05-9.08-9.19-9.08-6.93,0-9.3,4.37-9.19,8.67v5.57c-.11-4.3,2.26-8.67,9.19-8.67s9.08,4.29,9.18,8.46v-5Z" style="opacity:0.2"></path><path d="M227.35,72.06c.59,4.83,0,10.07-7,18.67-3.38,4.1-13.23,15.47-13.28,15.51l1-7.49-5.72,0,15.13-15.28c4.26-4.31,7.18-7.57,7.18-12.79,0-1.68-.23-4.4-1.51-6.25C225.15,65.6,227,68.72,227.35,72.06Z" style="fill:#049DD9"></path><path d="M222.48,87.9,217.83,83c-.14.16-.29.31-.44.46l-5.65,5.71,4.46,6.45c1.64-1.92,3.13-3.68,4.1-4.85C221.11,89.74,221.83,88.81,222.48,87.9Z" style="opacity:0.2"></path><path d="M207.42,72.06c-.59,4.83,0,10.07,7.05,18.67,3.38,4.1,13.23,15.47,13.28,15.51l-1-7.49,5.73,0s-10.88-11-15.14-15.28-7.18-7.57-7.18-12.79c0-1.68.23-4.4,1.51-6.25C209.63,65.6,207.82,68.72,207.42,72.06Z" style="fill:#049DD9"></path><path d="M207.42,72.06c-.59,4.83,0,10.07,7.05,18.67,3.38,4.1,13.23,15.47,13.28,15.51l-1-7.49,5.73,0s-10.88-11-15.14-15.28-7.18-7.57-7.18-12.79c0-1.68.23-4.4,1.51-6.25C209.63,65.6,207.82,68.72,207.42,72.06Z" style="fill:#fff;opacity:0.30000000000000004"></path><path d="M212.4,77.67a78.62,78.62,0,0,0-1.53,8.13c.24.38.51.78.78,1.18.16-1.86.89-5.16,1.54-8.19C212.91,78.42,212.64,78,212.4,77.67Z" style="fill:#fff;opacity:0.2"></path><path d="M210.23,71.37c-.78,3-1.79,6.89-2,8.94A24.82,24.82,0,0,0,210.35,85a80.49,80.49,0,0,1,1.54-8.1A11.93,11.93,0,0,1,210.23,71.37Z" style="fill:#fff;opacity:0.2"></path></g></g></g></svg>
